NFP 09-03-14.ufo
<glyph name="exclam" format="1">
  <advance width="212"/>
  <unicode hex="0021"/>
  <outline>
    <contour>
      <point x="58" y="441" type="line"/>
      <point x="65" y="185" type="line"/>
      <point x="147" y="185" type="line"/>
      <point x="154" y="441" type="line"/>
      <point x="157" y="685" type="line"/>
      <point x="55" y="685" type="line"/>
    </contour>
    <contour>
      <point x="55" y="115" type="line"/>
      <point x="55" y="0" type="line"/>
      <point x="157" y="0" type="line"/>
      <point x="157" y="115" type="line"/>
    </contour>
  </outline>
</glyph>
<glyph name="quotesingle" format="1">
  <advance width="202"/>
  <unicode hex="0027"/>
  <outline>
    <contour>
      <point x="108" y="570" type="line"/>
      <point x="114" y="520"/>
      <point x="95" y="490"/>
      <point x="59" y="469" type="curve"/>
      <point x="81" y="438" type="line"/>
      <point x="126" y="466"/>
      <point x="155" y="502"/>
      <point x="157" y="570" type="curve"/>
      <point x="157" y="685" type="line"/>
      <point x="55" y="685" type="line"/>
      <point x="55" y="570" type="line"/>
    </contour>
  </outline>
</glyph>
<glyph name="equal" format="1">
  <advance width="565"/>
  <unicode hex="003D"/>
  <outline>
    <contour>
      <point x="459" y="168" type="line"/>
      <point x="459" y="86" type="line"/>
      <point x="105" y="86" type="line"/>
      <point x="105" y="168" type="line"/>
    </contour>
    <contour>
      <point x="105" y="414" type="line"/>
      <point x="459" y="414" type="line"/>
      <point x="459" y="332" type="line"/>
      <point x="105" y="332" type="line"/>
    </contour>
  </outline>
</glyph>
<glyph name="F" format="1">
  <advance width="681"/>
  <unicode hex="0046"/>
  <outline>
    <contour>
      <point x="523" y="292" type="line"/>
      <point x="79" y="292" type="line"/>
      <point x="79" y="396" type="line"/>
      <point x="523" y="396" type="line"/>
    </contour>
    <contour>
      <point x="79" y="0" type="curve"/>
      <point x="79" y="104" type="line"/>
      <point x="79" y="104"/>
      <point x="79" y="0"/>
    </contour>
    <contour>
      <point x="593" y="582" type="line"/>
      <point x="79" y="582" type="line"/>
      <point x="79" y="686" type="line"/>
      <point x="593" y="686" type="line"/>
    </contour>
    <contour>
      <point x="79" y="0" type="line"/>
      <point x="79" y="685" type="line"/>
      <point x="188" y="685" type="line"/>
      <point x="188" y="0" type="line"/>
    </contour>
  </outline>
</glyph>
<glyph name="I" format="1">
  <advance width="296"/>
  <unicode hex="0049"/>
  <outline>
    <contour>
      <point x="79" y="0" type="line"/>
      <point x="79" y="685" type="line"/>
      <point x="188" y="685" type="line"/>
      <point x="188" y="0" type="line"/>
    </contour>
  </outline>
</glyph>
<glyph name="M" format="1">
  <advance width="859"/>
  <unicode hex="004D"/>
  <outline>
    <contour>
      <point x="478" y="0" type="line"/>
      <point x="379" y="0" type="line"/>
      <point x="594" y="685" type="line"/>
      <point x="703" y="685" type="line"/>
    </contour>
    <contour>
      <point x="379" y="0" type="line"/>
      <point x="155" y="685" type="line"/>
      <point x="264" y="685" type="line"/>
      <point x="478" y="0" type="line"/>
    </contour>
    <contour>
      <point x="660" y="0" type="line"/>
      <point x="660" y="685" type="line"/>
      <point x="769" y="685" type="line"/>
      <point x="769" y="0" type="line"/>
    </contour>
    <contour>
      <point x="90" y="0" type="line"/>
      <point x="90" y="685" type="line"/>
      <point x="199" y="685" type="line"/>
      <point x="199" y="0" type="line"/>
    </contour>
  </outline>
</glyph>
<glyph name="Q" format="1">
  <advance width="778"/>
  <unicode hex="0051"/>
  <outline>
    <contour>
      <point x="45" y="337" type="curve" smooth="yes"/>
      <point x="45" y="134"/>
      <point x="169" y="-10"/>
      <point x="379" y="-10" type="curve" smooth="yes"/>
      <point x="589" y="-10"/>
      <point x="713" y="134"/>
      <point x="713" y="337" type="curve" smooth="yes"/>
      <point x="713" y="531"/>
      <point x="597" y="695"/>
      <point x="379" y="695" type="curve" smooth="yes"/>
      <point x="161" y="695"/>
      <point x="45" y="540"/>
    </contour>
    <contour>
      <point x="596" y="337" type="curve" smooth="yes"/>
      <point x="596" y="204"/>
      <point x="535" y="83"/>
      <point x="379" y="83" type="curve" smooth="yes"/>
      <point x="223" y="83"/>
      <point x="162" y="204"/>
      <point x="162" y="337" type="curve" smooth="yes"/>
      <point x="162" y="470"/>
      <point x="242" y="602"/>
      <point x="379" y="602" type="curve" smooth="yes"/>
      <point x="516" y="602"/>
      <point x="596" y="470"/>
    </contour>
    <contour>
      <point x="672" y="-10" type="line"/>
      <point x="655" y="-23"/>
      <point x="630" y="-32"/>
      <point x="606" y="-32" type="curve" smooth="yes"/>
      <point x="563.727272727" y="-32.0"/>
      <point x="526.25" y="-2.0"/>
      <point x="560" y="88" type="curve"/>
      <point x="498" y="79" type="line"/>
      <point x="459.576923077" y="-66.1538461538"/>
      <point x="510.811764706" y="-137.0"/>
      <point x="597" y="-137" type="curve" smooth="yes"/>
      <point x="632" y="-137"/>
      <point x="672" y="-125"/>
      <point x="714" y="-103" type="curve"/>
    </contour>
  </outline>
</glyph>
<glyph name="S" format="1">
  <advance width="572"/>
  <unicode hex="0053"/>
  <outline>
    <contour>
      <point x="496" y="493" type="line"/>
      <point x="457" y="550"/>
      <point x="402" y="579"/>
      <point x="308" y="579" type="curve" smooth="yes"/>
      <point x="230" y="579"/>
      <point x="181" y="547"/>
      <point x="181" y="501" type="curve" smooth="yes"/>
      <point x="181" y="466"/>
      <point x="201" y="432"/>
      <point x="243" y="423" type="curve" smooth="yes"/>
      <point x="391" y="393" type="line" smooth="yes"/>
      <point x="492" y="373"/>
      <point x="608" y="321"/>
      <point x="608" y="201" type="curve"/>
      <point x="608" y="93"/>
      <point x="488" y="-5"/>
      <point x="321" y="-5" type="curve" smooth="yes"/>
      <point x="187" y="-5"/>
      <point x="58" y="55"/>
      <point x="29" y="151" type="curve"/>
      <point x="124" y="218" type="line"/>
      <point x="154" y="153"/>
      <point x="230" y="100"/>
      <point x="325" y="100" type="curve"/>
      <point x="402" y="100"/>
      <point x="474" y="133"/>
      <point x="474" y="190" type="curve"/>
      <point x="474" y="242"/>
      <point x="427" y="276"/>
      <point x="373" y="285" type="curve" smooth="yes"/>
      <point x="220" y="317" type="line" smooth="yes"/>
      <point x="134" y="335"/>
      <point x="58" y="386"/>
      <point x="58" y="504" type="curve"/>
      <point x="58" y="610"/>
      <point x="158" y="691"/>
      <point x="308" y="691" type="curve" smooth="yes"/>
      <point x="450" y="691"/>
      <point x="540" y="644"/>
      <point x="592" y="564" type="curve"/>
    </contour>
  </outline>
</glyph>
<glyph name="T" format="1">
  <advance width="565"/>
  <unicode hex="0054"/>
  <outline>
    <contour>
      <point x="555" y="581" type="line"/>
      <point x="10" y="581" type="line"/>
      <point x="10" y="685" type="line"/>
      <point x="555" y="685" type="line"/>
    </contour>
    <contour>
      <point x="228" y="0" type="line"/>
      <point x="228" y="685" type="line"/>
      <point x="337" y="685" type="line"/>
      <point x="337" y="0" type="line"/>
    </contour>
  </outline>
</glyph>
<glyph name="underscore" format="1">
  <advance width="565"/>
  <unicode hex="005F"/>
  <outline>
    <contour>
      <point x="0" y="0" type="line"/>
      <point x="565" y="0" type="line"/>
      <point x="565" y="-42" type="line"/>
      <point x="0" y="-42" type="line"/>
    </contour>
  </outline>
</glyph>
<glyph name="a" format="1">
  <advance width="577"/>
  <unicode hex="0061"/>
  <outline>
    <contour>
      <point x="70" y="383" type="line"/>
      <point x="125" y="476"/>
      <point x="198" y="505"/>
      <point x="293" y="505" type="curve" smooth="yes"/>
      <point x="403" y="505"/>
      <point x="506" y="460"/>
      <point x="500" y="320" type="curve" smooth="yes"/>
      <point x="495" y="138" type="line"/>
      <point x="496" y="104"/>
      <point x="488" y="75"/>
      <point x="554" y="86" type="curve"/>
      <point x="541" y="-5" type="line"/>
      <point x="435" y="-20"/>
      <point x="386" y="10"/>
      <point x="391" y="142" type="curve" smooth="yes"/>
      <point x="398" y="324" type="line" smooth="yes"/>
      <point x="400" y="396"/>
      <point x="346" y="418"/>
      <point x="287" y="418" type="curve"/>
      <point x="227" y="418"/>
      <point x="179" y="398"/>
      <point x="143" y="347" type="curve"/>
    </contour>
    <contour>
      <point x="441" y="227" type="line"/>
      <point x="352" y="235"/>
      <point x="158" y="237"/>
      <point x="158" y="145" type="curve" smooth="yes"/>
      <point x="158" y="99"/>
      <point x="187" y="71"/>
      <point x="229" y="71" type="curve" smooth="yes"/>
      <point x="309" y="71"/>
      <point x="387" y="137"/>
      <point x="414" y="204" type="curve"/>
      <point x="462" y="191" type="line"/>
      <point x="423" y="92"/>
      <point x="370" y="-13"/>
      <point x="229" y="-13" type="curve" smooth="yes"/>
      <point x="139" y="-13"/>
      <point x="53" y="27"/>
      <point x="53" y="141" type="curve" smooth="yes"/>
      <point x="53" y="278"/>
      <point x="260" y="321"/>
      <point x="449" y="303" type="curve"/>
    </contour>
  </outline>
</glyph>
<glyph name="c" format="1">
  <advance width="523"/>
  <unicode hex="0063"/>
  <outline>
    <contour>
      <point x="407" y="322" type="line"/>
      <point x="390" y="385"/>
      <point x="344" y="424"/>
      <point x="284" y="424" type="curve" smooth="yes"/>
      <point x="200" y="424"/>
      <point x="147" y="340"/>
      <point x="147" y="248" type="curve" smooth="yes"/>
      <point x="147" y="159"/>
      <point x="185" y="77"/>
      <point x="291" y="77" type="curve" smooth="yes"/>
      <point x="347" y="77"/>
      <point x="392" y="120"/>
      <point x="413" y="169" type="curve"/>
      <point x="500" y="132" type="line"/>
      <point x="460" y="44"/>
      <point x="378.887179487" y="-10.0"/>
      <point x="291" y="-10" type="curve" smooth="yes"/>
      <point x="162.222222222" y="-10.0"/>
      <point x="47" y="61"/>
      <point x="47" y="245" type="curve" smooth="yes"/>
      <point x="47" y="414"/>
      <point x="160.256637168" y="510.0"/>
      <point x="284" y="510" type="curve" smooth="yes"/>
      <point x="379.762557078" y="510.0"/>
      <point x="470" y="454"/>
      <point x="498" y="360" type="curve"/>
    </contour>
  </outline>
</glyph>
<glyph name="g" format="1">
  <advance width="580"/>
  <unicode hex="0067"/>
  <outline>
    <contour>
      <point x="528" y="397" type="line"/>
      <point x="471" y="428"/>
      <point x="418" y="395"/>
      <point x="418" y="311" type="curve"/>
      <point x="395" y="311" type="line"/>
      <point x="402" y="474"/>
      <point x="469" y="538"/>
      <point x="555" y="476" type="curve"/>
    </contour>
    <contour>
      <point x="181" y="196" type="line"/>
      <point x="165" y="178"/>
      <point x="147" y="164"/>
      <point x="147" y="143" type="curve"/>
      <point x="147" y="37"/>
      <point x="503" y="155"/>
      <point x="503" y="-47" type="curve" smooth="yes"/>
      <point x="503" y="-136"/>
      <point x="405" y="-198"/>
      <point x="278" y="-198" type="curve" smooth="yes"/>
      <point x="92" y="-198"/>
      <point x="44" y="-132"/>
      <point x="44" y="-67" type="curve" smooth="yes"/>
      <point x="44" y="-4"/>
      <point x="106" y="58"/>
      <point x="170" y="58" type="curve" smooth="yes"/>
      <point x="167" y="58"/>
      <point x="167" y="64"/>
      <point x="167" y="64" type="curve"/>
      <point x="189" y="44" type="line"/>
      <point x="160" y="28"/>
      <point x="138" y="-4"/>
      <point x="138" y="-35" type="curve" smooth="yes"/>
      <point x="138" y="-76"/>
      <point x="174" y="-116"/>
      <point x="278" y="-116" type="curve" smooth="yes"/>
      <point x="350" y="-116"/>
      <point x="393" y="-80"/>
      <point x="391" y="-47" type="curve"/>
      <point x="391" y="40"/>
      <point x="46" y="-38"/>
      <point x="46" y="123" type="curve" smooth="yes"/>
      <point x="46" y="178"/>
      <point x="91" y="203"/>
      <point x="163" y="231" type="curve"/>
    </contour>
    <contour>
      <point x="72.0" y="336.0" type="line"/>
      <point x="72.0" y="336.0"/>
      <point x="72.0" y="336.0"/>
      <point x="72.0" y="336.0" type="curve" smooth="yes"/>
      <point x="72.0" y="434.0"/>
      <point x="160.0" y="504.0"/>
      <point x="258.0" y="504.0" type="curve" smooth="yes"/>
      <point x="357.0" y="504.0"/>
      <point x="445.0" y="434.0"/>
      <point x="445.0" y="336.0" type="curve" smooth="yes"/>
      <point x="445.0" y="241.0"/>
      <point x="357.0" y="173.0"/>
      <point x="258.0" y="173.0" type="curve" smooth="yes"/>
      <point x="160.0" y="173.0"/>
      <point x="72.0" y="241.0"/>
      <point x="72.0" y="336.0" type="curve"/>
      <point x="170.0" y="336.0" type="line"/>
      <point x="170.0" y="293.0"/>
      <point x="203.0" y="248.0"/>
      <point x="258.0" y="248.0" type="curve" smooth="yes"/>
      <point x="314.0" y="248.0"/>
      <point x="347.0" y="293.0"/>
      <point x="347.0" y="336.0" type="curve" smooth="yes"/>
      <point x="347.0" y="379.0"/>
      <point x="314.0" y="424.0"/>
      <point x="258.0" y="424.0" type="curve" smooth="yes"/>
      <point x="203.0" y="424.0"/>
      <point x="170.0" y="379.0"/>
      <point x="170.0" y="336.0" type="curve" smooth="yes"/>
      <point x="170.0" y="336.0"/>
      <point x="170.0" y="336.0"/>
      <point x="170.0" y="336.0" type="curve"/>
    </contour>
  </outline>
</glyph>
<glyph name="k" format="1">
  <advance width="554"/>
  <unicode hex="006B"/>
  <outline>
    <contour>
      <point x="97" y="164" type="line"/>
      <point x="377.0" y="500.0" type="line"/>
      <point x="499.0" y="500.0" type="line"/>
      <point x="154" y="101" type="line"/>
    </contour>
    <contour>
      <point x="421.0" y="0.0" type="line"/>
      <point x="233.0" y="275.0" type="line"/>
      <point x="296.0" y="345.0" type="line"/>
      <point x="533.0" y="0.0" type="line"/>
    </contour>
    <component base="l" xOffset="27" yOffset="2"/>
  </outline>
</glyph>
<glyph name="o" format="1">
  <advance width="578"/>
  <unicode hex="006F"/>
  <outline>
    <contour>
      <point x="289" y="77" type="curve"/>
      <point x="379.151515152" y="77.0"/>
      <point x="429" y="146"/>
      <point x="429" y="249" type="curve" smooth="yes"/>
      <point x="429" y="352"/>
      <point x="379.151515152" y="422.0"/>
      <point x="289" y="422" type="curve"/>
      <point x="198.848484848" y="422.0"/>
      <point x="149.0" y="352.0"/>
      <point x="149" y="249" type="curve" smooth="yes"/>
      <point x="149.0" y="146.0"/>
      <point x="198.848484848" y="77.0"/>
    </contour>
    <contour>
      <point x="289" y="-10" type="curve" smooth="yes"/>
      <point x="151.639344262" y="-10.0"/>
      <point x="37.0" y="88.0"/>
      <point x="37" y="249" type="curve" smooth="yes"/>
      <point x="37.0" y="410.0"/>
      <point x="156.803278689" y="510.0"/>
      <point x="289" y="510" type="curve" smooth="yes"/>
      <point x="421.196721311" y="510.0"/>
      <point x="541" y="410"/>
      <point x="541" y="249" type="curve" smooth="yes"/>
      <point x="541" y="88"/>
      <point x="426.360655738" y="-10.0"/>
    </contour>
  </outline>
</glyph>
<glyph name="p" format="1">
  <advance width="586"/>
  <unicode hex="0070"/>
  <outline>
    <contour>
      <point x="188" y="241" type="line"/>
      <point x="188" y="131"/>
      <point x="247" y="69"/>
      <point x="314" y="69" type="curve" smooth="yes"/>
      <point x="391" y="69"/>
      <point x="441" y="139"/>
      <point x="441" y="252" type="curve" smooth="yes"/>
      <point x="441" y="365"/>
      <point x="390" y="428"/>
      <point x="315" y="428" type="curve" smooth="yes"/>
      <point x="234" y="428"/>
      <point x="188" y="352"/>
      <point x="188" y="242" type="curve"/>
      <point x="127" y="285" type="line"/>
      <point x="140" y="415"/>
      <point x="225" y="510"/>
      <point x="338" y="510" type="curve"/>
      <point x="434" y="510"/>
      <point x="541" y="435"/>
      <point x="541" y="252" type="curve" smooth="yes"/>
      <point x="541" y="69"/>
      <point x="433" y="-10"/>
      <point x="329" y="-10" type="curve"/>
      <point x="225" y="-10"/>
      <point x="136" y="87"/>
      <point x="126" y="222" type="curve"/>
    </contour>
    <component base="l" xOffset="31" yOffset="-185"/>
  </outline>
</glyph>
<glyph name="q" format="1">
  <advance width="579"/>
  <unicode hex="0071"/>
  <outline>
    <contour>
      <point x="398" y="369"/>
      <point x="339" y="431"/>
      <point x="272" y="431" type="curve" smooth="yes"/>
      <point x="195" y="431"/>
      <point x="145" y="361"/>
      <point x="145" y="248" type="curve" smooth="yes"/>
      <point x="145" y="135"/>
      <point x="196" y="72"/>
      <point x="271" y="72" type="curve" smooth="yes"/>
      <point x="352" y="72"/>
      <point x="398" y="148"/>
      <point x="398" y="258" type="curve"/>
      <point x="459" y="215" type="line"/>
      <point x="446" y="85"/>
      <point x="361" y="-10"/>
      <point x="248" y="-10" type="curve"/>
      <point x="152" y="-10"/>
      <point x="45" y="65"/>
      <point x="45" y="248" type="curve" smooth="yes"/>
      <point x="45" y="431"/>
      <point x="153" y="510"/>
      <point x="257" y="510" type="curve"/>
      <point x="361" y="510"/>
      <point x="450" y="413"/>
      <point x="460" y="278" type="curve"/>
      <point x="398" y="259" type="line"/>
    </contour>
    <component base="l" xOffset="343" yOffset="-185"/>
  </outline>
</glyph>
<glyph name="r" format="1">
  <advance width="352"/>
  <unicode hex="0072"/>
  <outline>
    <contour>
      <point x="55" y="0" type="line"/>
      <point x="55" y="500" type="line"/>
      <point x="157" y="500" type="line"/>
      <point x="157" y="0" type="line"/>
    </contour>
    <contour>
      <point x="311" y="371" type="line"/>
      <point x="294" y="388"/>
      <point x="273" y="397"/>
      <point x="247" y="397" type="curve" smooth="yes"/>
      <point x="199" y="397"/>
      <point x="157" y="352"/>
      <point x="157" y="284" type="curve"/>
      <point x="130" y="284" type="line"/>
      <point x="130" y="416"/>
      <point x="202" y="510"/>
      <point x="274" y="510" type="curve"/>
      <point x="304" y="510"/>
      <point x="335" y="492"/>
      <point x="350" y="471" type="curve"/>
    </contour>
  </outline>
</glyph>
<glyph name="w" format="1">
  <advance width="776"/>
  <unicode hex="0077"/>
  <outline>
    <contour>
      <point x="288" y="0" type="line"/>
      <point x="186" y="0" type="line"/>
      <point x="337" y="500" type="line"/>
      <point x="429" y="500" type="line"/>
    </contour>
    <contour>
      <point x="186" y="0" type="line"/>
      <point x="28" y="500" type="line"/>
      <point x="130" y="500" type="line"/>
      <point x="288" y="0" type="line"/>
    </contour>
    <contour>
      <point x="599" y="0" type="line"/>
      <point x="497" y="0" type="line"/>
      <point x="646" y="500" type="line"/>
      <point x="748" y="500" type="line"/>
    </contour>
    <contour>
      <point x="497" y="0" type="line"/>
      <point x="347" y="500" type="line"/>
      <point x="439" y="500" type="line"/>
      <point x="599" y="0" type="line"/>
    </contour>
  </outline>
</glyph>
<glyph name="x" format="1">
  <advance width="502"/>
  <unicode hex="0078"/>
  <outline>
    <contour>
      <point x="138" y="0" type="line"/>
      <point x="26" y="0" type="line"/>
      <point x="344" y="500" type="line"/>
      <point x="456" y="500" type="line"/>
    </contour>
    <contour>
      <point x="363" y="0" type="line"/>
      <point x="45" y="500" type="line"/>
      <point x="157" y="500" type="line"/>
      <point x="475" y="0" type="line"/>
    </contour>
  </outline>
</glyph>
<glyph name="z" format="1">
  <advance width="502"/>
  <unicode hex="007A"/>
  <outline>
    <contour>
      <point x="55" y="500" type="line"/>
      <point x="443" y="500" type="line"/>
      <point x="443" y="418" type="line"/>
      <point x="55" y="418" type="line"/>
    </contour>
    <contour>
      <point x="100" y="21" type="line"/>
      <point x="40" y="82" type="line"/>
      <point x="380" y="478" type="line"/>
      <point x="443" y="418" type="line"/>
    </contour>
    <contour>
      <point x="40" y="82" type="line"/>
      <point x="449" y="82" type="line"/>
      <point x="449" y="0" type="line"/>
      <point x="40" y="0" type="line"/>
    </contour>
  </outline>
</glyph>
<glyph name="bar" format="1">
  <advance width="212"/>
  <unicode hex="007C"/>
  <outline>
    <contour>
      <point x="55" y="-185" type="line"/>
      <point x="55" y="685" type="line"/>
      <point x="157" y="685" type="line"/>
      <point x="157" y="-185" type="line"/>
    </contour>
  </outline>
</glyph>
<glyph name="germandbls" format="1">
  <advance width="823"/>
  <unicode hex="00DF"/>
  <outline>
    <contour>
      <point x="212" y="616"/>
      <point x="251" y="650"/>
      <point x="303" y="650" type="curve" smooth="yes"/>
      <point x="360" y="650"/>
      <point x="398" y="606"/>
      <point x="398" y="563" type="curve"/>
      <point x="398" y="489"/>
      <point x="280" y="467"/>
      <point x="280" y="359" type="curve"/>
      <point x="280" y="221"/>
      <point x="505" y="225"/>
      <point x="505" y="134" type="curve"/>
      <point x="505" y="90"/>
      <point x="457" y="66"/>
      <point x="413" y="66" type="curve"/>
      <point x="363" y="66"/>
      <point x="336" y="91"/>
      <point x="303" y="120" type="curve"/>
      <point x="245" y="56" type="line"/>
      <point x="288" y="16"/>
      <point x="338" y="-16"/>
      <point x="410" y="-16" type="curve" smooth="yes"/>
      <point x="516" y="-16"/>
      <point x="604" y="55"/>
      <point x="604" y="140" type="curve"/>
      <point x="604" y="280"/>
      <point x="370" y="297"/>
      <point x="370" y="368" type="curve"/>
      <point x="370" y="442"/>
      <point x="493" y="466"/>
      <point x="493" y="560" type="curve"/>
      <point x="493" y="650"/>
      <point x="421" y="736"/>
      <point x="293" y="736" type="curve"/>
      <point x="188" y="736"/>
      <point x="107" y="688"/>
      <point x="107" y="561" type="curve" smooth="yes"/>
      <point x="107" y="0" type="line"/>
      <point x="212" y="0" type="line"/>
      <point x="212" y="544" type="line" smooth="yes"/>
    </contour>
  </outline>
</glyph>
<glyph name="ae" format="1">
  <advance width="896"/>
  <unicode hex="00E6"/>
  <outline>
    <contour>
      <point x="70" y="383" type="line"/>
      <point x="125" y="476"/>
      <point x="198" y="505"/>
      <point x="293" y="505" type="curve" smooth="yes"/>
      <point x="403" y="505"/>
      <point x="506" y="460"/>
      <point x="500" y="320" type="curve"/>
      <point x="495" y="138" type="line"/>
      <point x="402" y="246" type="line"/>
      <point x="404" y="324" type="line" smooth="yes"/>
      <point x="406" y="396"/>
      <point x="346" y="418"/>
      <point x="287" y="418" type="curve"/>
      <point x="227" y="418"/>
      <point x="179" y="398"/>
      <point x="143" y="347" type="curve"/>
    </contour>
    <contour>
      <point x="441" y="227" type="line"/>
      <point x="352" y="235"/>
      <point x="158" y="237"/>
      <point x="158" y="145" type="curve" smooth="yes"/>
      <point x="158" y="99"/>
      <point x="187" y="71"/>
      <point x="229" y="71" type="curve" smooth="yes"/>
      <point x="309" y="71"/>
      <point x="387" y="137"/>
      <point x="414" y="204" type="curve"/>
      <point x="462" y="191" type="line"/>
      <point x="423" y="92"/>
      <point x="370" y="-13"/>
      <point x="229" y="-13" type="curve" smooth="yes"/>
      <point x="139" y="-13"/>
      <point x="53" y="27"/>
      <point x="53" y="141" type="curve" smooth="yes"/>
      <point x="53" y="278"/>
      <point x="260" y="321"/>
      <point x="449" y="303" type="curve"/>
    </contour>
    <contour>
      <point x="458" y="304" type="line"/>
      <point x="800" y="304" type="line"/>
      <point x="800" y="222" type="line"/>
      <point x="458" y="222" type="line"/>
    </contour>
    <contour>
      <point x="753" y="222" type="line"/>
      <point x="753" y="334"/>
      <point x="729" y="431"/>
      <point x="625" y="431" type="curve" smooth="yes"/>
      <point x="540" y="431"/>
      <point x="498" y="356"/>
      <point x="498" y="248" type="curve" smooth="yes"/>
      <point x="498" y="153"/>
      <point x="545" y="72"/>
      <point x="644" y="72" type="curve" smooth="yes"/>
      <point x="703" y="73"/>
      <point x="754" y="116"/>
      <point x="777" y="162" type="curve"/>
      <point x="861" y="125" type="line"/>
      <point x="826" y="39"/>
      <point x="729" y="-9"/>
      <point x="644" y="-10" type="curve" smooth="yes"/>
      <point x="507" y="-12"/>
      <point x="403" y="66"/>
      <point x="403" y="248" type="curve"/>
      <point x="403" y="419"/>
      <point x="499" y="510"/>
      <point x="625" y="510" type="curve" smooth="yes"/>
      <point x="759" y="510"/>
      <point x="855" y="443"/>
      <point x="855" y="222" type="curve"/>
    </contour>
  </outline>
</glyph>
<glyph name="thorn" format="1">
  <advance width="586"/>
  <unicode hex="00FE"/>
  <outline>
    <contour>
      <point x="131" y="248" type="curve" smooth="yes"/>
      <point x="131" y="396"/>
      <point x="218" y="510"/>
      <point x="338" y="510" type="curve"/>
      <point x="434" y="510"/>
      <point x="541" y="435"/>
      <point x="541" y="252" type="curve" smooth="yes"/>
      <point x="541" y="69"/>
      <point x="433" y="-10"/>
      <point x="329" y="-10" type="curve"/>
      <point x="221.0" y="-10.0"/>
      <point x="131" y="100"/>
    </contour>
    <contour>
      <point x="188" y="242" type="curve" smooth="yes"/>
      <point x="188" y="132"/>
      <point x="247" y="69"/>
      <point x="314" y="69" type="curve" smooth="yes"/>
      <point x="391" y="69"/>
      <point x="441" y="139"/>
      <point x="441" y="252" type="curve" smooth="yes"/>
      <point x="441" y="365"/>
      <point x="390" y="428"/>
      <point x="315" y="428" type="curve" smooth="yes"/>
      <point x="234" y="428"/>
      <point x="188" y="352"/>
    </contour>
    <contour>
      <point x="86" y="-185" type="line"/>
      <point x="86" y="500" type="line"/>
      <point x="188" y="500" type="line"/>
      <point x="188" y="-185" type="line"/>
    </contour>
  </outline>
</glyph>
<glyph name="oe" format="1">
  <advance width="1110"/>
  <unicode hex="0153"/>
  <outline>
    <contour>
      <point x="289" y="77" type="curve"/>
      <point x="379.151515152" y="77.0"/>
      <point x="429" y="146"/>
      <point x="429" y="249" type="curve" smooth="yes"/>
      <point x="429" y="352"/>
      <point x="379.151515152" y="422.0"/>
      <point x="289" y="422" type="curve"/>
      <point x="198.848484848" y="422.0"/>
      <point x="149.0" y="352.0"/>
      <point x="149" y="249" type="curve" smooth="yes"/>
      <point x="149.0" y="146.0"/>
      <point x="198.848484848" y="77.0"/>
    </contour>
    <contour>
      <point x="289.0" y="-10.0" type="curve" smooth="yes"/>
      <point x="152.0" y="-10.0"/>
      <point x="37.0" y="88.0"/>
      <point x="37.0" y="249.0" type="curve" smooth="yes"/>
      <point x="37.0" y="410.0"/>
      <point x="157.0" y="510.0"/>
      <point x="289.0" y="510.0" type="curve" smooth="yes"/>
      <point x="380.0" y="510.0"/>
      <point x="465.0" y="463.0"/>
      <point x="509.0" y="381.0" type="curve"/>
      <point x="525.0" y="150.0" type="line"/>
      <point x="488.0" y="49.0"/>
      <point x="395.0" y="-10.0"/>
    </contour>
    <contour>
      <point x="484" y="304" type="line"/>
      <point x="826" y="304" type="line"/>
      <point x="826" y="222" type="line"/>
      <point x="484" y="222" type="line"/>
    </contour>
    <contour>
      <point x="779" y="222" type="line"/>
      <point x="779" y="334"/>
      <point x="755" y="431"/>
      <point x="651" y="431" type="curve" smooth="yes"/>
      <point x="566" y="431"/>
      <point x="524" y="356"/>
      <point x="524" y="248" type="curve" smooth="yes"/>
      <point x="524" y="153"/>
      <point x="571" y="72"/>
      <point x="670" y="72" type="curve" smooth="yes"/>
      <point x="729" y="73"/>
      <point x="780" y="116"/>
      <point x="803" y="162" type="curve"/>
      <point x="887" y="125" type="line"/>
      <point x="852" y="39"/>
      <point x="755" y="-9"/>
      <point x="670" y="-10" type="curve" smooth="yes"/>
      <point x="533" y="-12"/>
      <point x="429" y="66"/>
      <point x="429" y="248" type="curve"/>
      <point x="429" y="419"/>
      <point x="525" y="510"/>
      <point x="651" y="510" type="curve" smooth="yes"/>
      <point x="785" y="510"/>
      <point x="881" y="443"/>
      <point x="881" y="222" type="curve"/>
    </contour>
  </outline>
</glyph>
<glyph name="emdash" format="1">
  <advance width="776"/>
  <unicode hex="2014"/>
  <outline>
    <contour>
      <point x="0" y="315" type="line"/>
      <point x="776" y="315" type="line"/>
      <point x="776" y="233" type="line"/>
      <point x="0" y="233" type="line"/>
    </contour>
  </outline>
</glyph>
<glyph name="minus" format="1">
  <advance width="565"/>
  <unicode hex="2212"/>
  <outline>
    <contour>
      <point x="68" y="315" type="line"/>
      <point x="497" y="315" type="line"/>
      <point x="497" y="233" type="line"/>
      <point x="68" y="233" type="line"/>
    </contour>
  </outline>
</glyph>
<glyph name="n.alt" format="1">
  <advance width="600"/>
  <outline>
    <contour>
      <point x="408" y="0" type="line"/>
      <point x="408" y="333" type="line" smooth="yes"/>
      <point x="408" y="378"/>
      <point x="378" y="415"/>
      <point x="320" y="415" type="curve" smooth="yes"/>
      <point x="255" y="415"/>
      <point x="201" y="379"/>
      <point x="167" y="301" type="curve"/>
      <point x="130" y="324" type="line"/>
      <point x="194" y="470"/>
      <point x="251" y="500"/>
      <point x="344" y="500" type="curve" smooth="yes"/>
      <point x="444" y="500"/>
      <point x="510" y="428"/>
      <point x="510" y="349" type="curve" smooth="yes"/>
      <point x="510" y="0" type="line"/>
    </contour>
    <contour>
      <point x="90" y="500" type="line"/>
      <point x="192" y="500" type="line"/>
      <point x="192" y="0" type="line"/>
      <point x="90" y="0" type="line"/>
    </contour>
  </outline>
</glyph>
